<?xml version="1.0" encoding="UTF-8"?>
<svg xmlns="http://www.w3.org/2000/svg" width="1024" height="1280" viewBox="0 0 1024 1280" role="img" aria-label="TL-S003 Rainbow Tooth">
  <defs>
    <radialGradient id="paperGlow" cx="50%" cy="38%" r="70%">
      <stop offset="0%" stop-color="#e9ffe1" stop-opacity="0.62" />
      <stop offset="48%" stop-color="#cde2d7" stop-opacity="0.36" />
      <stop offset="100%" stop-color="#f2f6e8" stop-opacity="1" />
    </radialGradient>
    <filter id="rough" x="-10%" y="-10%" width="120%" height="120%">
      <feTurbulence type="fractalNoise" baseFrequency="0.0137" numOctaves="4" seed="42994" result="noise" />
      <feDisplacementMap in="SourceGraphic" in2="noise" scale="2.2" xChannelSelector="R" yChannelSelector="G" />
    </filter>
  </defs>
  <rect width="1024" height="1280" fill="url(#paperGlow)" />
  <rect x="42" y="42" width="940" height="1196" rx="58" fill="none" stroke="#17383c" stroke-opacity="0.14" stroke-width="4" />
  <circle cx="748.4" cy="190.8" r="55.9" fill="#e9ffe1" opacity="0.36" />
  <g filter="url(#rough)" opacity="0.92">
    <circle cx="245.3" cy="198.8" r="19.4" fill="none" stroke="#38a39a" stroke-width="5.7" opacity="0.24" />
<path d="M 441.5 424.8 C 424.0 424.5, 445.8 470.1, 441.2 457.5" fill="none" stroke="#3558a5" stroke-width="8.606035739183426" stroke-linecap="round" stroke-linejoin="round" opacity="0.58" />
<circle cx="382.0" cy="677.2" r="19.2" fill="none" stroke="#3558a5" stroke-width="5.5" opacity="0.29" />
<circle cx="386.6" cy="648.2" r="21.9" fill="none" stroke="#3558a5" stroke-width="6.3" opacity="0.29" />
<circle cx="477.2" cy="173.6" r="16.1" fill="none" stroke="#ffd76a" stroke-width="7.5" opacity="0.39" />
<path d="M 587.7 888.2 C 561.8 893.6, 536.7 863.4, 521.4 854.5" fill="none" stroke="#ffd76a" stroke-width="9.402701097540557" stroke-linecap="round" stroke-linejoin="round" opacity="0.58" />
<path d="M 273.5 431.3 C 260.5 426.9, 263.0 390.7, 266.1 373.7" fill="none" stroke="#d76757" stroke-width="6.125436085276306" stroke-linecap="round" stroke-linejoin="round" opacity="0.58" />
<path d="M 712.0 844.3 C 699.2 834.9, 688.1 885.7, 696.1 887.7" fill="none" stroke="#38a39a" stroke-width="8.150404854677618" stroke-linecap="round" stroke-linejoin="round" opacity="0.39" />
<circle cx="789.3" cy="477.9" r="7.4" fill="none" stroke="#3558a5" stroke-width="7.6" opacity="0.26" />
<path d="M 616.9 838.8 C 582.0 849.8, 613.5 840.8, 562.8 846.3" fill="none" stroke="#d76757" stroke-width="10.844051797874272" stroke-linecap="round" stroke-linejoin="round" opacity="0.58" />
<circle cx="828.4" cy="922.4" r="18.9" fill="none" stroke="#38a39a" stroke-width="5.9" opacity="0.27" />
<circle cx="632.4" cy="742.2" r="21.8" fill="none" stroke="#d76757" stroke-width="5.8" opacity="0.26" />
<path d="M 573.2 333.7 C 550.8 344.2, 547.0 355.2, 535.6 357.1" fill="none" stroke="#d76757" stroke-width="9.026462635025382" stroke-linecap="round" stroke-linejoin="round" opacity="0.46" />
<circle cx="869.5" cy="963.4" r="24.8" fill="none" stroke="#ffd76a" stroke-width="4.8" opacity="0.19" />
<path d="M 864.9 807.4 C 871.2 783.9, 889.2 764.4, 860.5 782.7" fill="none" stroke="#d76757" stroke-width="9.831376735121012" stroke-linecap="round" stroke-linejoin="round" opacity="0.54" />
<path d="M 915.2 611.8 C 967.6 622.2, 944.3 655.2, 982.5 661.6" fill="none" stroke="#38a39a" stroke-width="9.153994459658861" stroke-linecap="round" stroke-linejoin="round" opacity="0.41" />
<circle cx="486.4" cy="737.4" r="21.3" fill="none" stroke="#38a39a" stroke-width="5.6" opacity="0.34" />
<path d="M 199.2 628.4 C 186.8 646.6, 158.0 636.2, 127.6 643.9" fill="none" stroke="#ffd76a" stroke-width="10.821054023690522" stroke-linecap="round" stroke-linejoin="round" opacity="0.47" />
<path d="M 451.0 534.7 C 419.2 534.5, 428.7 527.4, 390.9 521.5" fill="none" stroke="#3558a5" stroke-width="8.796713373623788" stroke-linecap="round" stroke-linejoin="round" opacity="0.40" />
<circle cx="637.8" cy="451.4" r="21.0" fill="none" stroke="#3558a5" stroke-width="6.2" opacity="0.23" />
<path d="M 415.6 329.3 C 441.5 330.8, 442.7 335.9, 445.2 325.7" fill="none" stroke="#d76757" stroke-width="6.791347133927047" stroke-linecap="round" stroke-linejoin="round" opacity="0.41" />
<circle cx="220.8" cy="882.2" r="22.7" fill="none" stroke="#3558a5" stroke-width="4.9" opacity="0.36" />
<path d="M 624.0 862.2 C 650.2 867.0, 654.0 842.2, 668.1 861.5" fill="none" stroke="#3558a5" stroke-width="8.649834736250341" stroke-linecap="round" stroke-linejoin="round" opacity="0.58" />
<path d="M 931.0 851.9 C 918.0 852.2, 930.1 806.7, 922.5 818.4" fill="none" stroke="#3558a5" stroke-width="9.480139882303774" stroke-linecap="round" stroke-linejoin="round" opacity="0.48" />
    <path d="M 225.42728966660798 483.88027597684413 C 267.427289666608 361.88027597684413, 403.427289666608 361.88027597684413, 447.427289666608 483.88027597684413" fill="none" stroke="#38a39a" stroke-width="12" stroke-linecap="round" opacity="0.62" />
<path d="M 249.42728966660798 483.88027597684413 C 267.427289666608 361.88027597684413, 403.427289666608 361.88027597684413, 429.427289666608 483.88027597684413" fill="none" stroke="#ffd76a" stroke-width="12" stroke-linecap="round" opacity="0.62" />
<path d="M 273.427289666608 483.88027597684413 C 267.427289666608 361.88027597684413, 403.427289666608 361.88027597684413, 411.427289666608 483.88027597684413" fill="none" stroke="#3558a5" stroke-width="12" stroke-linecap="round" opacity="0.62" />
<path d="M 297.427289666608 483.88027597684413 C 267.427289666608 361.88027597684413, 403.427289666608 361.88027597684413, 393.427289666608 483.88027597684413" fill="none" stroke="#d76757" stroke-width="12" stroke-linecap="round" opacity="0.62" />
    <path d="M 492.8 469.1 C 462.2 511.7, 470.9 573.4, 514.1 586.7 C 519.0 605.8, 538.6 659.0, 562.4 610.6 C 583.5 653.1, 610.0 616.9, 626.1 587.7 C 659.3 570.9, 658.4 499.0, 623.5 477.0 C 590.2 455.7, 531.8 452.3, 498.0 468.8 Z" fill="#fbfbff" stroke="#3558a5" stroke-width="14" stroke-linejoin="round" opacity="0.92" />
    <path d="M 524.2 491.9 C 484.8 512.2, 500.9 571.2, 535.0 586.7 C 538.1 604.2, 547.1 629.0, 567.9 603.3 C 579.8 635.2, 602.3 607.1, 619.4 586.5 C 654.6 566.8, 645.6 510.9, 623.3 488.9 C 595.6 472.8, 546.1 471.8, 524.3 489.6 Z" fill="none" stroke="#17383c" stroke-width="4" stroke-linejoin="round" opacity="0.12" />
    <polyline points="585.7,816.4 600.6,849.8 562.9,856.0 541.9,863.2 514.1,890.6 495.0,861.5 464.6,847.9 471.0,815.8 488.4,795.1 496.6,771.7 519.2,759.8 549.7,740.9 573.0,765.7 569.6,798.7 605.8,817.6 593.4,847.6 579.3,878.8 542.9,871.9 520.2,861.0 486.8,869.8 473.9,842.4 472.0,814.9 484.8,792.4 505.7,782.3 521.7,767.1 544.3,766.8 563.1,779.1 584.5,792.9 585.9,818.2 570.9,837.1 575.7,876.2 540.5,864.2 512.2,888.0 489.4,865.0 478.2,839.4 457.9,813.3 467.1,781.9 490.6,760.2 520.8,757.5 546.2,763.2 571.1,771.3 575.2,797.9 609.8,820.3 569.8,837.3 565.6,864.2 542.1,878.2 513.6,878.5 501.5,849.8 474.9,839.7" fill="none" stroke="#3558a5" stroke-width="7.818832126446068" stroke-linecap="round" stroke-linejoin="round" opacity="0.56" />
    <path d="M 217.8 936.6 C 518.3 938.0, 479.5 895.4, 798.1 883.5" fill="none" stroke="#38a39a" stroke-width="10.494685731828213" stroke-linecap="round" stroke-linejoin="round" opacity="0.43" />
<path d="M 218.4 932.2 C 496.5 951.2, 502.0 895.9, 793.4 891.2" fill="none" stroke="#38a39a" stroke-width="12.86218188982457" stroke-linecap="round" stroke-linejoin="round" opacity="0.49" />
<path d="M 210.5 940.9 C 514.9 933.9, 483.8 870.3, 789.3 892.2" fill="none" stroke="#38a39a" stroke-width="10.990685744211078" stroke-linecap="round" stroke-linejoin="round" opacity="0.62" />
    <path d="M 197.2 988.7 C 525.9 976.2, 514.2 1014.5, 858.7 1037.8" fill="none" stroke="#3558a5" stroke-width="7.759521564468741" stroke-linecap="round" stroke-linejoin="round" opacity="0.36" />
<path d="M 198.8 983.4 C 511.5 984.2, 509.6 1051.0, 862.3 1038.0" fill="none" stroke="#3558a5" stroke-width="10.738322679884732" stroke-linecap="round" stroke-linejoin="round" opacity="0.54" />
  </g>
  <g>
    <rect x="96" y="88" width="188" height="52" rx="26" fill="#17383c" opacity="0.78" />
    <text x="124" y="123" fill="#e9ffe1" font-family="Verdana, sans-serif" font-size="24" font-weight="900" letter-spacing="3">TL-S003</text>
    <text x="96" y="1110" fill="#17383c" font-family="Georgia, serif" font-size="56" font-weight="800">Rainbow Tooth</text>
    <text x="98" y="1172" fill="#17383c" opacity="0.78" font-family="Verdana, sans-serif" font-size="30">I put it in a tiny cup so it would not run away.</text>
    <text x="100" y="1218" fill="#17383c" opacity="0.38" font-family="Verdana, sans-serif" font-size="20" font-weight="800" letter-spacing="3">SAMPLE TOOTHLIGHT - PROCEDURAL</text>
  </g>
</svg>
