<?xml version="1.0" encoding="UTF-8"?>
<svg xmlns="http://www.w3.org/2000/svg" width="1024" height="1280" viewBox="0 0 1024 1280" role="img" aria-label="TL-S036 Kitchen Tooth 2">
  <defs>
    <radialGradient id="paperGlow" cx="50%" cy="38%" r="70%">
      <stop offset="0%" stop-color="#fff0a8" stop-opacity="0.62" />
      <stop offset="48%" stop-color="#d9e8f4" stop-opacity="0.36" />
      <stop offset="100%" stop-color="#f7f0dc" stop-opacity="1" />
    </radialGradient>
    <filter id="rough" x="-10%" y="-10%" width="120%" height="120%">
      <feTurbulence type="fractalNoise" baseFrequency="0.0172" numOctaves="4" seed="75895" result="noise" />
      <feDisplacementMap in="SourceGraphic" in2="noise" scale="2.2" xChannelSelector="R" yChannelSelector="G" />
    </filter>
  </defs>
  <rect width="1024" height="1280" fill="url(#paperGlow)" />
  <rect x="42" y="42" width="940" height="1196" rx="58" fill="none" stroke="#11304b" stroke-opacity="0.14" stroke-width="4" />
  <circle cx="751.9" cy="177.1" r="54.8" fill="#fff0a8" opacity="0.36" />
  <g filter="url(#rough)" opacity="0.92">
    <path d="M 317.1 283.9 C 339.2 269.2, 332.8 256.9, 326.9 270.3" fill="none" stroke="#ff7d5f" stroke-width="11.263246204704046" stroke-linecap="round" stroke-linejoin="round" opacity="0.61" />
<circle cx="480.2" cy="275.4" r="7.5" fill="none" stroke="#f0c456" stroke-width="4.9" opacity="0.33" />
<path d="M 872.4 301.4 C 823.3 296.1, 817.3 322.9, 803.8 342.2" fill="none" stroke="#294f9d" stroke-width="9.674140117131174" stroke-linecap="round" stroke-linejoin="round" opacity="0.59" />
<circle cx="571.9" cy="153.4" r="19.3" fill="none" stroke="#f0c456" stroke-width="5.1" opacity="0.25" />
<path d="M 746.3 211.1 C 792.1 224.9, 761.1 175.9, 819.2 177.2" fill="none" stroke="#294f9d" stroke-width="8.590531771071255" stroke-linecap="round" stroke-linejoin="round" opacity="0.52" />
<path d="M 579.5 184.3 C 559.9 180.3, 584.8 139.6, 587.8 131.5" fill="none" stroke="#294f9d" stroke-width="10.170004506595433" stroke-linecap="round" stroke-linejoin="round" opacity="0.36" />
<circle cx="378.9" cy="397.4" r="7.5" fill="none" stroke="#ff7d5f" stroke-width="6.7" opacity="0.19" />
<circle cx="663.2" cy="235.9" r="8.7" fill="none" stroke="#65ad73" stroke-width="5.0" opacity="0.30" />
<path d="M 275.2 667.3 C 291.9 659.1, 272.7 647.2, 282.8 625.2" fill="none" stroke="#f0c456" stroke-width="9.752605109475553" stroke-linecap="round" stroke-linejoin="round" opacity="0.42" />
<circle cx="355.6" cy="333.5" r="13.2" fill="none" stroke="#f0c456" stroke-width="5.1" opacity="0.34" />
<path d="M 212.2 590.6 C 178.5 587.3, 203.1 658.3, 157.5 645.8" fill="none" stroke="#f0c456" stroke-width="6.297066626138985" stroke-linecap="round" stroke-linejoin="round" opacity="0.46" />
<path d="M 297.6 646.0 C 256.2 629.3, 268.8 694.5, 238.5 671.4" fill="none" stroke="#65ad73" stroke-width="10.193453546613455" stroke-linecap="round" stroke-linejoin="round" opacity="0.47" />
<circle cx="288.9" cy="559.1" r="24.8" fill="none" stroke="#294f9d" stroke-width="6.9" opacity="0.21" />
<circle cx="143.8" cy="596.3" r="22.2" fill="none" stroke="#ff7d5f" stroke-width="6.6" opacity="0.36" />
<circle cx="566.3" cy="678.8" r="20.3" fill="none" stroke="#ff7d5f" stroke-width="6.8" opacity="0.37" />
<circle cx="782.5" cy="675.4" r="21.3" fill="none" stroke="#294f9d" stroke-width="8.0" opacity="0.26" />
<path d="M 740.1 895.4 C 717.4 902.8, 721.9 928.4, 717.0 922.7" fill="none" stroke="#294f9d" stroke-width="8.109509318135679" stroke-linecap="round" stroke-linejoin="round" opacity="0.37" />
<circle cx="719.6" cy="762.3" r="15.9" fill="none" stroke="#294f9d" stroke-width="5.2" opacity="0.25" />
<circle cx="300.7" cy="701.2" r="22.7" fill="none" stroke="#65ad73" stroke-width="6.3" opacity="0.20" />
<circle cx="167.3" cy="405.5" r="12.7" fill="none" stroke="#294f9d" stroke-width="5.5" opacity="0.22" />
<path d="M 265.0 609.8 C 270.9 625.2, 259.7 539.1, 291.6 562.4" fill="none" stroke="#294f9d" stroke-width="9.013969752937555" stroke-linecap="round" stroke-linejoin="round" opacity="0.59" />
<path d="M 640.0 906.0 C 675.5 919.7, 643.1 873.6, 667.8 889.5" fill="none" stroke="#65ad73" stroke-width="10.43519957177341" stroke-linecap="round" stroke-linejoin="round" opacity="0.51" />
<path d="M 492.9 511.4 C 505.3 510.4, 464.7 516.9, 494.1 522.9" fill="none" stroke="#ff7d5f" stroke-width="9.349902434274554" stroke-linecap="round" stroke-linejoin="round" opacity="0.61" />
<circle cx="791.1" cy="619.9" r="8.5" fill="none" stroke="#294f9d" stroke-width="6.3" opacity="0.24" />
    <path d="M 391.08115884196013 395.47811798611656 L 415.08115884196013 459.47811798611656 L 483.08115884196013 459.47811798611656 L 427.08115884196013 495.47811798611656 L 449.08115884196013 559.4781179861166 L 391.08115884196013 519.4781179861166 L 333.08115884196013 559.4781179861166 L 355.08115884196013 495.47811798611656 L 299.08115884196013 459.47811798611656 L 367.08115884196013 459.47811798611656 Z" fill="none" stroke="#294f9d" stroke-width="10" stroke-linejoin="round" opacity="0.7" />
    <path d="M 488.8 519.1 C 441.7 550.0, 449.6 624.6, 505.1 637.8 C 510.6 672.5, 525.1 705.8, 546.7 674.8 C 576.9 707.3, 594.5 675.3, 619.2 642.6 C 661.8 611.7, 660.4 550.5, 623.0 519.0 C 590.6 502.0, 519.3 500.6, 485.9 522.0 Z" fill="#fbfbff" stroke="#f0c456" stroke-width="14" stroke-linejoin="round" opacity="0.92" />
    <path d="M 513.4 542.0 C 473.8 563.8, 482.1 615.1, 515.8 638.5 C 533.0 656.8, 539.8 692.3, 564.3 651.4 C 579.2 686.0, 599.9 656.4, 605.8 640.1 C 642.7 614.2, 642.7 559.8, 621.8 539.0 C 585.4 518.8, 542.8 524.7, 510.8 541.7 Z" fill="none" stroke="#11304b" stroke-width="4" stroke-linejoin="round" opacity="0.12" />
    <polyline points="684.2,810.4 691.1,851.2 636.9,848.6 626.4,898.9 588.4,888.2 569.1,856.7 552.9,835.7 516.7,809.6 546.0,780.5 564.6,756.6 587.4,721.6 625.7,731.2 644.3,764.5 685.8,773.7 680.9,811.6 677.6,846.2 638.5,852.1 623.2,890.7 593.1,863.8 560.5,865.5 527.7,846.0 527.1,808.4 550.1,781.3 571.8,764.2 590.1,727.1 625.5,737.4 651.8,757.1 667.5,783.4 684.9,813.0 675.8,846.8 657.7,879.4 620.0,881.1 582.8,898.5 565.0,858.5 538.5,839.8 538.9,807.5 561.1,786.0 561.3,748.1 593.9,740.6 621.1,758.3 660.4,749.1 652.7,790.9 692.5,814.7 667.7,843.8 655.2,878.5 614.9,859.0 583.4,890.9 543.5,880.9 549.8,833.8" fill="none" stroke="#f0c456" stroke-width="8.414235753938556" stroke-linecap="round" stroke-linejoin="round" opacity="0.56" />
    <path d="M 215.7 933.9 C 523.0 938.0, 510.0 890.5, 793.1 892.8" fill="none" stroke="#65ad73" stroke-width="11.70269797835499" stroke-linecap="round" stroke-linejoin="round" opacity="0.46" />
<path d="M 211.2 938.5 C 490.9 946.3, 504.5 890.7, 798.3 891.6" fill="none" stroke="#65ad73" stroke-width="11.527817569673061" stroke-linecap="round" stroke-linejoin="round" opacity="0.53" />
<path d="M 209.4 939.6 C 502.1 924.9, 520.4 890.1, 792.0 889.4" fill="none" stroke="#65ad73" stroke-width="13.510136899538338" stroke-linecap="round" stroke-linejoin="round" opacity="0.45" />
    <path d="M 194.5 986.4 C 554.2 997.4, 551.7 1019.1, 861.6 1031.7" fill="none" stroke="#f0c456" stroke-width="10.913755252957344" stroke-linecap="round" stroke-linejoin="round" opacity="0.40" />
<path d="M 193.5 984.7 C 520.2 1007.4, 554.8 1026.7, 866.1 1035.3" fill="none" stroke="#f0c456" stroke-width="8.734214939177036" stroke-linecap="round" stroke-linejoin="round" opacity="0.46" />
  </g>
  <g>
    <rect x="96" y="88" width="188" height="52" rx="26" fill="#11304b" opacity="0.78" />
    <text x="124" y="123" fill="#fff0a8" font-family="Verdana, sans-serif" font-size="24" font-weight="900" letter-spacing="3">TL-S036</text>
    <text x="96" y="1110" fill="#11304b" font-family="Georgia, serif" font-size="56" font-weight="800">Kitchen Tooth 2</text>
    <text x="98" y="1172" fill="#11304b" opacity="0.78" font-family="Verdana, sans-serif" font-size="30">My tooth had a big day.</text>
    <text x="100" y="1218" fill="#11304b" opacity="0.38" font-family="Verdana, sans-serif" font-size="20" font-weight="800" letter-spacing="3">SAMPLE TOOTHLIGHT - PROCEDURAL</text>
  </g>
</svg>
