<?xml version="1.0" encoding="UTF-8"?>
<svg xmlns="http://www.w3.org/2000/svg" width="1024" height="1280" viewBox="0 0 1024 1280" role="img" aria-label="TL-S008 Star Tooth">
  <defs>
    <radialGradient id="paperGlow" cx="50%" cy="38%" r="70%">
      <stop offset="0%" stop-color="#e9ffe1" stop-opacity="0.62" />
      <stop offset="48%" stop-color="#cde2d7" stop-opacity="0.36" />
      <stop offset="100%" stop-color="#f2f6e8" stop-opacity="1" />
    </radialGradient>
    <filter id="rough" x="-10%" y="-10%" width="120%" height="120%">
      <feTurbulence type="fractalNoise" baseFrequency="0.0188" numOctaves="4" seed="47979" result="noise" />
      <feDisplacementMap in="SourceGraphic" in2="noise" scale="2.2" xChannelSelector="R" yChannelSelector="G" />
    </filter>
  </defs>
  <rect width="1024" height="1280" fill="url(#paperGlow)" />
  <rect x="42" y="42" width="940" height="1196" rx="58" fill="none" stroke="#17383c" stroke-opacity="0.14" stroke-width="4" />
  <circle cx="756.6" cy="206.8" r="41.2" fill="#e9ffe1" opacity="0.36" />
  <g filter="url(#rough)" opacity="0.92">
    <circle cx="473.6" cy="459.8" r="22.7" fill="none" stroke="#38a39a" stroke-width="7.2" opacity="0.39" />
<path d="M 878.8 712.5 C 856.1 720.8, 869.1 745.6, 840.0 765.4" fill="none" stroke="#38a39a" stroke-width="6.214464653283358" stroke-linecap="round" stroke-linejoin="round" opacity="0.53" />
<circle cx="611.4" cy="453.2" r="14.6" fill="none" stroke="#3558a5" stroke-width="7.9" opacity="0.35" />
<path d="M 623.6 528.4 C 648.7 518.1, 599.5 520.3, 623.7 518.2" fill="none" stroke="#d76757" stroke-width="11.079051218926907" stroke-linecap="round" stroke-linejoin="round" opacity="0.56" />
<path d="M 180.2 352.5 C 189.1 354.8, 181.5 357.8, 232.3 342.2" fill="none" stroke="#d76757" stroke-width="9.251271108165383" stroke-linecap="round" stroke-linejoin="round" opacity="0.41" />
<circle cx="864.9" cy="733.0" r="7.5" fill="none" stroke="#3558a5" stroke-width="6.4" opacity="0.23" />
<circle cx="359.5" cy="330.1" r="24.6" fill="none" stroke="#38a39a" stroke-width="6.2" opacity="0.37" />
<circle cx="407.0" cy="315.0" r="14.2" fill="none" stroke="#38a39a" stroke-width="4.1" opacity="0.27" />
<path d="M 242.6 255.4 C 221.2 254.8, 229.5 204.8, 170.3 199.3" fill="none" stroke="#3558a5" stroke-width="7.526172525249422" stroke-linecap="round" stroke-linejoin="round" opacity="0.52" />
<path d="M 637.8 148.5 C 599.5 168.1, 607.8 195.9, 573.7 194.3" fill="none" stroke="#d76757" stroke-width="7.022555535659194" stroke-linecap="round" stroke-linejoin="round" opacity="0.35" />
<path d="M 410.4 258.1 C 432.6 261.7, 459.3 326.7, 483.9 309.6" fill="none" stroke="#3558a5" stroke-width="8.81444497872144" stroke-linecap="round" stroke-linejoin="round" opacity="0.42" />
<circle cx="246.7" cy="652.4" r="23.7" fill="none" stroke="#d76757" stroke-width="6.4" opacity="0.31" />
<path d="M 447.9 879.5 C 437.4 891.9, 458.2 883.7, 439.0 897.0" fill="none" stroke="#3558a5" stroke-width="10.384384111501276" stroke-linecap="round" stroke-linejoin="round" opacity="0.60" />
<path d="M 691.9 759.7 C 691.4 764.2, 689.7 716.5, 642.3 725.3" fill="none" stroke="#ffd76a" stroke-width="9.304601307958364" stroke-linecap="round" stroke-linejoin="round" opacity="0.53" />
<circle cx="791.7" cy="585.1" r="14.6" fill="none" stroke="#ffd76a" stroke-width="7.7" opacity="0.36" />
<path d="M 745.8 386.5 C 712.9 378.8, 737.5 383.9, 684.5 397.5" fill="none" stroke="#38a39a" stroke-width="9.858182167634368" stroke-linecap="round" stroke-linejoin="round" opacity="0.40" />
<path d="M 210.8 677.6 C 196.9 684.6, 181.1 712.1, 159.0 719.8" fill="none" stroke="#ffd76a" stroke-width="7.313574227504432" stroke-linecap="round" stroke-linejoin="round" opacity="0.47" />
<path d="M 370.3 262.1 C 360.4 240.6, 373.4 208.3, 355.4 205.7" fill="none" stroke="#38a39a" stroke-width="9.43219775147736" stroke-linecap="round" stroke-linejoin="round" opacity="0.36" />
<path d="M 897.8 541.4 C 894.7 539.3, 913.1 528.1, 905.8 540.4" fill="none" stroke="#ffd76a" stroke-width="10.727161701768637" stroke-linecap="round" stroke-linejoin="round" opacity="0.52" />
<path d="M 552.0 691.1 C 579.4 701.9, 575.0 713.3, 566.7 729.5" fill="none" stroke="#38a39a" stroke-width="9.86734134145081" stroke-linecap="round" stroke-linejoin="round" opacity="0.39" />
<path d="M 270.4 668.1 C 292.5 654.0, 264.6 654.9, 262.9 646.1" fill="none" stroke="#d76757" stroke-width="10.833184803836048" stroke-linecap="round" stroke-linejoin="round" opacity="0.52" />
<circle cx="504.0" cy="410.8" r="13.0" fill="none" stroke="#38a39a" stroke-width="6.3" opacity="0.25" />
<path d="M 364.6 390.3 C 326.0 409.3, 320.7 401.0, 299.4 409.2" fill="none" stroke="#38a39a" stroke-width="9.946932150050998" stroke-linecap="round" stroke-linejoin="round" opacity="0.56" />
<circle cx="600.5" cy="444.6" r="12.5" fill="none" stroke="#38a39a" stroke-width="6.2" opacity="0.34" />
    <path d="M 343.7054322678596 345.3035269831307 L 367.7054322678596 409.3035269831307 L 435.7054322678596 409.3035269831307 L 379.7054322678596 445.3035269831307 L 401.7054322678596 509.3035269831307 L 343.7054322678596 469.3035269831307 L 285.7054322678596 509.3035269831307 L 307.7054322678596 445.3035269831307 L 251.70543226785958 409.3035269831307 L 319.7054322678596 409.3035269831307 Z" fill="none" stroke="#ffd76a" stroke-width="10" stroke-linejoin="round" opacity="0.7" />
    <path d="M 411.5 463.4 C 375.7 498.2, 391.5 564.8, 437.8 591.9 C 441.8 610.4, 454.5 650.6, 484.2 608.1 C 508.3 648.2, 523.4 600.3, 548.8 587.5 C 590.7 549.4, 585.0 491.4, 559.2 468.9 C 523.0 434.1, 455.1 430.9, 408.1 457.3 Z" fill="#f9f2dc" stroke="#d76757" stroke-width="14" stroke-linejoin="round" opacity="0.92" />
    <path d="M 443.9 475.8 C 413.1 497.6, 420.9 556.8, 446.6 568.4 C 467.1 597.6, 465.1 628.7, 491.5 591.7 C 507.1 629.1, 527.3 587.2, 542.3 572.2 C 570.5 548.7, 573.2 496.2, 543.1 479.5 C 515.9 456.2, 467.4 460.1, 445.5 473.1 Z" fill="none" stroke="#17383c" stroke-width="4" stroke-linejoin="round" opacity="0.12" />
    <polyline points="651.6,864.9 650.5,902.0 606.6,906.4 590.7,940.7 557.6,933.8 541.2,905.2 506.3,896.8 489.1,864.2 508.1,832.5 526.4,804.2 560.7,804.5 591.1,792.9 621.2,807.0 634.5,836.8 638.2,866.0 620.8,888.6 603.3,903.4 583.3,911.2 554.1,943.0 539.8,905.5 518.6,889.8 491.2,862.8 514.2,834.3 522.0,796.2 557.2,781.5 592.5,792.5 607.6,825.0 620.6,844.1 626.8,866.7 639.2,899.3 612.6,917.4 584.7,923.1 552.3,944.3 528.6,917.1 519.0,888.5 520.1,862.6 525.9,839.2 538.2,816.1 565.2,818.1 587.5,815.3 611.1,822.4 639.7,837.0 642.0,868.3 622.9,891.8 620.5,930.3 584.0,924.6 553.8,934.3 516.9,928.4 514.0,889.5" fill="none" stroke="#3558a5" stroke-width="7.210991335101426" stroke-linecap="round" stroke-linejoin="round" opacity="0.56" />
    <path d="M 215.1 937.8 C 516.0 923.3, 524.0 869.8, 796.8 888.6" fill="none" stroke="#ffd76a" stroke-width="10.234879116527736" stroke-linecap="round" stroke-linejoin="round" opacity="0.46" />
<path d="M 214.0 933.7 C 488.1 947.5, 488.6 893.7, 798.3 887.6" fill="none" stroke="#ffd76a" stroke-width="12.740055717527866" stroke-linecap="round" stroke-linejoin="round" opacity="0.60" />
<path d="M 212.7 935.3 C 485.0 932.6, 514.4 889.3, 796.3 885.7" fill="none" stroke="#ffd76a" stroke-width="12.7602757262066" stroke-linecap="round" stroke-linejoin="round" opacity="0.40" />
    <path d="M 201.9 983.1 C 537.9 994.7, 530.3 1016.5, 864.3 1030.0" fill="none" stroke="#3558a5" stroke-width="9.35626005101949" stroke-linecap="round" stroke-linejoin="round" opacity="0.58" />
<path d="M 195.3 992.6 C 533.7 1006.0, 534.6 1023.2, 862.9 1033.9" fill="none" stroke="#3558a5" stroke-width="8.090913008898497" stroke-linecap="round" stroke-linejoin="round" opacity="0.37" />
  </g>
  <g>
    <rect x="96" y="88" width="188" height="52" rx="26" fill="#17383c" opacity="0.78" />
    <text x="124" y="123" fill="#e9ffe1" font-family="Verdana, sans-serif" font-size="24" font-weight="900" letter-spacing="3">TL-S008</text>
    <text x="96" y="1110" fill="#17383c" font-family="Georgia, serif" font-size="56" font-weight="800">Star Tooth</text>
    <text x="98" y="1172" fill="#17383c" opacity="0.78" font-family="Verdana, sans-serif" font-size="30">It popped out when I was thinking about cookies.</text>
    <text x="100" y="1218" fill="#17383c" opacity="0.38" font-family="Verdana, sans-serif" font-size="20" font-weight="800" letter-spacing="3">SAMPLE TOOTHLIGHT - PROCEDURAL</text>
  </g>
</svg>
